<svg width="140" height="135" viewBox="0 0 140 135" fill="none" xmlns="http://www.w3.org/2000/svg">
<path d="M7.54042 135C3.61851 135 0.557062 132.858 0 128.961L3.92191 127.94C4.17494 130.27 5.68041 131.477 7.69199 131.477C9.23544 131.477 10.4626 130.701 10.45 128.947C10.4373 126.991 8.41312 126.373 6.1865 125.597C3.50444 124.648 0.632589 123.526 0.632589 119.702C0.632589 115.834 3.41589 113.649 7.08473 113.649C10.2981 113.649 13.5369 115.13 14.2708 119.112L10.6019 120.148C10.2603 118.077 9.03315 117.171 7.3126 117.171C5.78178 117.171 4.47871 117.89 4.47871 119.601C4.47871 121.197 6.27517 121.729 8.35003 122.434C11.108 123.383 14.3721 124.59 14.3721 128.731C14.3721 133.145 11.1208 135 7.54042 135ZM33.4634 113.936V117.732H29.1241V134.712H25.3666V117.732H21.0019V113.936H33.4634ZM55.0335 113.936L49.0241 124.763V134.712H45.2161V124.863L39.1688 113.936H43.369L47.1012 121.01L50.846 113.936H55.0335ZM66.3818 130.902H72.1129V134.712H62.5865V113.936H66.3819L66.3818 130.902ZM90.5967 117.732H83.8154V122.448H89.8248V126.201H83.8154V130.903H90.5967V134.713H79.995V113.936H90.5967V117.732ZM120.441 134.712H116.658L115.456 119.054L110.826 134.712H108.371L103.741 119.054L102.527 134.712H98.7311L100.262 113.936H105.677L109.573 126.977L113.521 113.936H118.935L120.441 134.712ZM140 117.732H133.219V122.448H139.228V126.201H133.219V130.903H140V134.713H129.398V113.936H140V117.732Z" fill="white"/>
<path d="M69.2393 107.5C54.1446 107.575 41.8513 93.7163 41.8513 76.5988C41.8513 69.6319 43.9276 62.8898 47.7178 57.4212L48.6406 56.2226C48.7395 56.1102 48.8713 55.9604 48.9702 55.848L75.8309 21.9875C80.0496 26.295 80.4121 33.6739 76.6219 38.4308L56.3528 63.976C53.6502 67.4595 52.1671 71.9542 52.1671 76.5988C52.1671 87.2738 59.9122 96.0012 69.3712 95.8139C78.6653 95.6266 86.0809 86.8618 86.0809 76.2991V68.2835C86.0809 61.841 90.662 56.6346 96.3638 56.6346V76.2242C96.3308 93.3418 84.2682 107.425 69.2393 107.5Z" fill="white"/>
<path d="M90.4642 50.0419V50.1168L62.4169 85.4756C58.1983 81.1681 57.8358 73.7892 61.6259 69.0322L81.8951 43.4871C84.5976 40.0036 86.0808 35.4714 86.0808 30.8643C86.0808 20.1892 78.3356 11.4619 68.8767 11.6492C59.5166 11.799 52.1011 20.6013 52.1011 31.1639V39.1796C52.1011 45.6221 47.5199 50.8285 41.8182 50.8285V31.2389C41.8511 14.1962 53.9138 0.0752149 68.9096 0.000302275C84.0044 -0.0746103 96.2977 13.7842 96.2977 30.9017C96.3307 37.8686 94.2543 44.6107 90.4642 50.0419Z" fill="white"/>
</svg>
